<?xml version="1.0" encoding="UTF-8"?><svg id="a" xmlns="http://www.w3.org/2000/svg" viewBox="0 0 197.423 197.423"><path d="M98.711,5c51.673,0,93.711,42.039,93.711,93.711s-42.039,93.711-93.711,93.711S5,150.384,5,98.711,47.039,5,98.711,5m0-5C44.195,0,0,44.195,0,98.711s44.195,98.711,98.711,98.711,98.711-44.195,98.711-98.711S153.228,0,98.711,0h0Z" fill="#fff"/><path d="M134.315,99.246l-53.036,34.679c-.425,.278-.988-.027-.988-.534V64.033c0-.507,.563-.812,.988-.534l53.036,34.679c.385,.252,.385,.817,0,1.069Z" fill="#fff"/></svg>